<svg width="200" height="200" viewBox="0 0 200 200" fill="none" xmlns="http://www.w3.org/2000/svg">
<path d="M100.296 165.317C133.433 165.317 160.296 138.454 160.296 105.317C160.296 72.1796 133.433 45.3167 100.296 45.3167C67.1588 45.3167 40.2959 72.1796 40.2959 105.317C40.2959 138.454 67.1588 165.317 100.296 165.317Z" fill="#F4F4F4"/>
<path d="M100.296 165.317C133.433 165.317 160.296 138.454 160.296 105.317C160.296 72.1796 133.433 45.3167 100.296 45.3167C67.1588 45.3167 40.2959 72.1796 40.2959 105.317C40.2959 138.454 67.1588 165.317 100.296 165.317Z" fill="#015A80"/>
<path d="M104.728 106.228C110.043 105.256 114.849 102.452 118.31 98.3027C121.771 94.1539 123.668 88.923 123.672 83.52V75.228H77.416V83.52C77.4203 88.9228 79.3179 94.1533 82.779 98.302C86.24 102.451 91.0455 105.255 96.36 106.228C96.7251 107.796 96.7388 109.426 96.4 111C91.0808 111.967 86.2692 114.769 82.8033 118.919C79.3373 123.068 77.4366 128.302 77.432 133.708V142H123.672V133.708C123.668 128.301 121.768 123.067 118.302 118.918C114.836 114.768 110.024 111.966 104.704 111C104.362 109.427 104.37 107.798 104.728 106.228Z" fill="#FFE3CA"/>
<path d="M102.636 116.732L101.28 116.488C100.887 112.082 100.909 107.649 101.348 103.248L103.64 102.824C106.198 102.356 108.614 101.308 110.705 99.7623C112.795 98.2162 114.504 96.2121 115.7 93.9035C115.779 93.7374 115.814 93.5539 115.802 93.3704C115.79 93.1869 115.732 93.0094 115.633 92.8546C115.534 92.6998 115.397 92.5728 115.235 92.4855C115.073 92.3981 114.892 92.3534 114.708 92.3555H86.4C86.2165 92.3545 86.0358 92.3999 85.8746 92.4875C85.7134 92.5751 85.5769 92.702 85.4779 92.8565C85.3789 93.011 85.3206 93.188 85.3084 93.371C85.2962 93.5541 85.3304 93.7373 85.408 93.9035C86.6047 96.2121 88.3136 98.2164 90.4038 99.7631C92.4941 101.31 94.9104 102.358 97.468 102.828L99.552 103.228C99.932 107.688 99.648 112.164 99.152 116.624L98.476 116.748C94.261 117.516 90.4489 119.738 87.7031 123.027C84.9573 126.316 83.4515 130.463 83.448 134.748C83.448 134.911 83.4802 135.072 83.5428 135.223C83.6053 135.374 83.697 135.511 83.8126 135.626C83.9282 135.741 84.0653 135.832 84.2162 135.894C84.3671 135.956 84.5288 135.988 84.692 135.988H116.44C116.769 135.988 117.085 135.857 117.318 135.625C117.551 135.392 117.683 135.077 117.684 134.748C117.683 130.458 116.175 126.304 113.425 123.012C110.675 119.72 106.857 117.497 102.636 116.732Z" fill="#F05E22"/>
<path d="M127.876 77.332H73.2C72.4526 77.332 71.7358 77.0351 71.2073 76.5067C70.6789 75.9782 70.382 75.2614 70.382 74.514C70.382 73.7667 70.6789 73.0499 71.2073 72.5214C71.7358 71.9929 72.4526 71.696 73.2 71.696H127.876C128.623 71.696 129.34 71.9929 129.869 72.5214C130.397 73.0499 130.694 73.7667 130.694 74.514C130.694 75.2614 130.397 75.9782 129.869 76.5067C129.34 77.0351 128.623 77.332 127.876 77.332Z" fill="#FF8019"/>
<path d="M127.876 145.256H73.2C72.4526 145.256 71.7358 144.959 71.2073 144.43C70.6789 143.902 70.382 143.185 70.382 142.438C70.382 141.69 70.6789 140.973 71.2073 140.445C71.7358 139.917 72.4526 139.62 73.2 139.62H127.876C128.623 139.62 129.34 139.917 129.869 140.445C130.397 140.973 130.694 141.69 130.694 142.438C130.694 143.185 130.397 143.902 129.869 144.43C129.34 144.959 128.623 145.256 127.876 145.256Z" fill="#FF8019"/>
<path d="M159.456 142.226C159.456 129.557 149.186 119.288 136.518 119.288C123.85 119.288 113.58 129.557 113.58 142.226C113.58 154.894 123.85 165.164 136.518 165.164C149.186 165.164 159.456 154.894 159.456 142.226Z" fill="#19D6FF"/>
<path d="M136.516 156.628C137.782 156.628 138.808 155.602 138.808 154.336C138.808 153.071 137.782 152.044 136.516 152.044C135.25 152.044 134.224 153.071 134.224 154.336C134.224 155.602 135.25 156.628 136.516 156.628Z" fill="#015A80"/>
<path d="M136.516 149.948C135.908 149.947 135.326 149.705 134.896 149.276C134.467 148.846 134.225 148.264 134.224 147.656V134.8C134.272 134.227 134.534 133.692 134.958 133.302C135.381 132.912 135.936 132.696 136.512 132.696C137.088 132.696 137.643 132.912 138.066 133.302C138.49 133.692 138.752 134.227 138.8 134.8V147.648C138.801 148.256 138.561 148.839 138.133 149.27C137.705 149.701 137.124 149.945 136.516 149.948Z" fill="#015A80"/>
</svg>
