<svg width="200" height="200" viewBox="0 0 200 200" fill="none" xmlns="http://www.w3.org/2000/svg">
<path d="M100.296 165.316C133.433 165.316 160.296 138.453 160.296 105.316C160.296 72.1793 133.433 45.3164 100.296 45.3164C67.1588 45.3164 40.2959 72.1793 40.2959 105.316C40.2959 138.453 67.1588 165.316 100.296 165.316Z" fill="#015A80"/>
<mask id="mask0_1953_13022" style="mask-type:alpha" maskUnits="userSpaceOnUse" x="35" y="28" width="133" height="138">
<path d="M100.296 165.316C133.433 165.316 160.296 138.453 160.296 105.316C190.5 5.49959 116.5 32.0004 54.9998 32C21.8627 32 40.2959 72.1793 40.2959 105.316C40.2959 138.453 67.1588 165.316 100.296 165.316Z" fill="#015A80"/>
</mask>
<g mask="url(#mask0_1953_13022)">
<path d="M103.096 190.148C103.096 190.148 133.316 186.46 155.708 165.432C155.833 165.313 155.987 165.229 156.154 165.186C156.322 165.144 156.497 165.144 156.664 165.188C156.831 165.232 156.984 165.318 157.108 165.438C157.233 165.557 157.325 165.707 157.376 165.872C159.376 172.272 165.332 196.828 142.112 206.548C115.308 217.764 103.096 190.148 103.096 190.148Z" fill="#FF9F36"/>
<path d="M159.556 180.139C159.555 175.299 158.821 170.488 157.38 165.867C157.329 165.703 157.236 165.554 157.111 165.435C156.987 165.316 156.834 165.23 156.667 165.187C156.5 165.143 156.325 165.143 156.158 165.185C155.991 165.228 155.837 165.313 155.712 165.431C150.913 169.902 145.622 173.812 139.94 177.087C139.94 177.087 147.54 175.599 150.66 174.231C150.752 174.19 150.853 174.175 150.953 174.187C151.053 174.2 151.147 174.239 151.226 174.301C151.305 174.364 151.366 174.446 151.401 174.54C151.437 174.634 151.446 174.736 151.428 174.835C151.028 177.087 150.052 182.063 149.188 183.595C148.172 185.403 152.492 184.431 154.412 183.615C154.495 183.58 154.585 183.566 154.675 183.575C154.765 183.585 154.851 183.617 154.925 183.668C154.999 183.72 155.058 183.789 155.098 183.87C155.138 183.951 155.156 184.041 155.152 184.131C154.128 212.531 124.048 208.567 124.048 208.567C124.048 208.567 135.804 212.327 148.716 202.871C160.896 193.959 159.556 180.139 159.556 180.139Z" fill="#FFE3CA"/>
<path d="M84.2441 138.319C84.1161 138.239 68.3841 133.267 58.9241 127.375C49.4641 121.483 45.6041 127.031 48.0361 130.111C60.4921 145.875 71.7041 152.807 78.1001 155.255C84.4961 157.703 94.5961 144.719 84.2441 138.319Z" fill="#FF9F36"/>
<path d="M82.416 156.188C87.7533 156.188 92.08 151.861 92.08 146.524C92.08 141.187 87.7533 136.86 82.416 136.86C77.0787 136.86 72.752 141.187 72.752 146.524C72.752 151.861 77.0787 156.188 82.416 156.188Z" fill="#FF9F36"/>
<path d="M54.068 137.199L60.4 128.259C59.896 127.967 59.4 127.675 58.92 127.375C49.464 121.483 45.6 127.031 48.032 130.111C50.088 132.703 52.1 135.055 54.068 137.199Z" fill="#333333"/>
<path d="M112.368 154.771C112.468 154.887 126.008 164.311 133.284 172.751C140.56 181.191 145.9 177.047 144.484 173.383C137.284 154.631 128.644 144.671 123.284 140.431C117.924 136.191 104.4 145.599 112.368 154.771Z" fill="#FF9F36"/>
<path d="M116.56 157.148C121.897 157.148 126.224 152.821 126.224 147.484C126.224 142.146 121.897 137.82 116.56 137.82C111.223 137.82 106.896 142.146 106.896 147.484C106.896 152.821 111.223 157.148 116.56 157.148Z" fill="#FF9F36"/>
<path d="M140.844 164.832L132.136 171.472C132.533 171.899 132.916 172.325 133.284 172.752C140.56 181.196 145.9 177.048 144.484 173.384C143.308 170.296 142.084 167.456 140.844 164.832Z" fill="#333333"/>
<path d="M130.604 169.475C127.404 146.779 121.804 134.151 105.844 132.983C104.366 132.872 102.884 132.842 101.404 132.891C99.9232 132.842 98.441 132.872 96.9637 132.983C81.0078 134.151 74.8678 147.587 71.6678 170.283C68.4678 192.979 76.0677 210.215 101.404 209.783C126.728 210.215 133.812 192.223 130.604 169.475Z" fill="#FF9F36"/>
<path d="M120.696 165.664C119.796 154.288 117.728 143.692 115.036 137.788C113.716 134.892 112.136 132.456 106.176 131.976C105.232 131.9 104.308 131.86 103.428 131.86C103.128 131.86 102.84 131.86 102.548 131.86C102.32 131.86 102.092 131.86 101.868 131.86H101.6H101.244H100.892H100.624C100.4 131.86 100.168 131.86 99.94 131.86C99.652 131.86 99.36 131.86 99.064 131.86C98.18 131.86 97.256 131.9 96.316 131.976C90.356 132.456 88.776 134.892 87.456 137.788C84.76 143.692 82.692 154.288 81.796 165.664C79.836 190.508 84.816 199.164 101.504 199.748C118.196 199.164 122.652 190.508 120.696 165.664Z" fill="#FFE3CA"/>
<path d="M112.436 73.0276C111.936 73.5968 111.595 74.288 111.449 75.0312C111.302 75.7743 111.354 76.5431 111.6 77.2596C113.008 81.3956 113.628 84.8596 116.368 90.7556C119.612 97.7436 130.688 106.484 134.432 106.312C136.884 106.2 139.964 106.992 142.396 101.964C169.368 46.1276 151.1 45.0236 148.036 45.2596L147.352 45.4676C139.112 50.0036 130.084 55.6276 120.652 64.5316C117.632 67.3876 114.9 70.2396 112.436 73.0276Z" fill="#FF9F36"/>
<path d="M120.628 76.8521C120.025 77.5309 119.611 78.3574 119.431 79.2476C119.25 80.1377 119.309 81.0598 119.6 81.9201C119.736 82.3201 120.38 86.1361 122.316 88.9961C130.6 101.228 137.632 96.8161 139.388 93.7961C147.612 79.6361 147.572 54.5961 144.36 55.8721C132.224 60.6281 121.884 75.4321 120.628 76.8521Z" fill="#FFE3CA"/>
<path d="M86.7439 73.0276C87.243 73.5972 87.5827 74.2886 87.7288 75.0317C87.8749 75.7749 87.8222 76.5434 87.5759 77.2596C86.1679 81.3956 85.5479 84.8596 82.8119 90.7556C79.5679 97.7436 68.4879 106.484 64.7439 106.312C62.2919 106.2 59.2119 106.992 56.7799 101.964C29.8079 46.1276 48.0759 45.0236 51.1399 45.2596L51.8279 45.4676C60.0639 50.0036 69.0919 55.6276 78.5239 64.5316C81.5479 67.3876 84.2799 70.2396 86.7439 73.0276Z" fill="#FF9F36"/>
<path d="M78.5518 76.8521C79.1533 77.5321 79.5639 78.3593 79.7417 79.2496C79.9194 80.1398 79.8581 81.0613 79.5638 81.9201C79.4278 82.3201 78.7878 86.1361 76.8478 88.9961C68.5638 101.228 61.5318 96.8161 59.7758 93.7961C51.5518 79.6361 51.5918 54.5961 54.8038 55.8721C66.9558 60.6281 77.2958 75.4321 78.5518 76.8521Z" fill="#FFE3CA"/>
<path d="M147.788 111.199C146.438 111.133 145.135 110.682 144.032 109.899C142.392 108.675 141.848 106.935 141.592 106.255C139.62 101.111 139.916 95.479 138.176 90.255C134.776 80.075 126.384 72.319 124.46 70.763C123.184 69.731 113.552 62.915 100.396 63.251C87.2401 62.915 77.5961 69.731 76.3281 70.763C74.4081 72.319 66.0161 80.075 62.6161 90.255C60.8761 95.479 61.1721 101.111 59.2001 106.255C58.9401 106.935 58.4001 108.675 56.7601 109.899C55.6576 110.682 54.3544 111.133 53.0041 111.199C52.6692 111.222 52.3458 111.33 52.0649 111.514C51.7839 111.697 51.5547 111.95 51.3994 112.247C51.244 112.545 51.1676 112.877 51.1776 113.213C51.1875 113.548 51.2834 113.875 51.4561 114.163L51.4801 114.203C74.3521 139.199 89.5481 138.735 100.4 138.587C111.248 138.735 126.444 139.215 149.316 114.219L149.34 114.179C149.516 113.89 149.614 113.561 149.625 113.224C149.636 112.886 149.56 112.551 149.404 112.252C149.248 111.952 149.017 111.698 148.734 111.513C148.451 111.329 148.125 111.221 147.788 111.199Z" fill="#FF9F36"/>
<path d="M149.164 114.288C149.164 114.045 149.068 113.812 148.896 113.64C148.724 113.469 148.491 113.372 148.248 113.372C145.208 113.332 138.936 112.888 135.048 110.12C130.616 106.964 125.164 106.564 113.848 110.12C111.688 110.8 108.108 113.348 101.824 112.048H100.384H98.9441C92.6601 113.348 89.0801 110.8 86.9161 110.12C75.6041 106.564 70.1561 106.964 65.7161 110.12C61.8321 112.888 55.5641 113.32 52.5161 113.372C52.2732 113.372 52.0402 113.469 51.8684 113.64C51.6966 113.812 51.6001 114.045 51.6001 114.288H51.4041C52.2401 126.596 69.4361 136.688 91.8761 138.752C96.3721 139.192 100.36 139.152 100.368 139.152C103.214 139.199 106.059 139.065 108.888 138.752C131.228 136.66 148.32 126.576 149.156 114.304L149.164 114.288ZM51.6881 114.608C51.7145 114.681 51.7508 114.749 51.7961 114.812C51.7508 114.749 51.7145 114.681 51.6881 114.608ZM51.6361 114.392C51.6429 114.449 51.6536 114.505 51.6681 114.56C51.6539 114.507 51.6433 114.454 51.6361 114.4V114.392ZM149.1 114.608C149.075 114.681 149.04 114.749 148.996 114.812C149.04 114.749 149.075 114.681 149.1 114.608ZM149.156 114.392C149.15 114.449 149.138 114.505 149.12 114.56C149.137 114.508 149.149 114.454 149.156 114.4V114.392Z" fill="#FFE3CA"/>
<path d="M102 112.635C101.45 112.866 100.859 112.979 100.264 112.967H100.172C98.0516 112.875 96.3596 111.131 96.2876 110.043C96.2745 109.931 96.2868 109.818 96.3236 109.711C96.5596 108.987 98.4196 108.323 100.004 108.199C100.364 108.175 100.732 108.199 101.096 108.199C101.984 108.199 104.108 108.691 104.42 109.583C104.688 110.399 103.648 111.943 102 112.635Z" fill="#333333"/>
<path d="M77.3121 98.0477C76.9881 101.524 79.6441 104.616 83.2481 104.948C86.8521 105.28 89.7601 103.436 90.0841 99.9597C90.4081 96.4837 88.2161 92.9477 84.4161 92.3597C81.4721 91.9077 77.6361 94.5717 77.3121 98.0477Z" fill="white"/>
<path d="M84.7081 104.468C87.5645 104.468 89.8801 102.152 89.8801 99.2958C89.8801 96.4394 87.5645 94.1238 84.7081 94.1238C81.8517 94.1238 79.5361 96.4394 79.5361 99.2958C79.5361 102.152 81.8517 104.468 84.7081 104.468Z" fill="#654E47"/>
<path d="M84.7081 102.915C86.7074 102.915 88.3281 101.294 88.3281 99.295C88.3281 97.2958 86.7074 95.675 84.7081 95.675C82.7089 95.675 81.0881 97.2958 81.0881 99.295C81.0881 101.294 82.7089 102.915 84.7081 102.915Z" fill="#273526"/>
<path d="M87.2718 101.912C87.8109 101.912 88.2478 101.475 88.2478 100.936C88.2478 100.397 87.8109 99.9597 87.2718 99.9597C86.7328 99.9597 86.2958 100.397 86.2958 100.936C86.2958 101.475 86.7328 101.912 87.2718 101.912Z" fill="#FAF9FC"/>
<path d="M82.4796 97.7275C83.2926 97.7275 83.9516 97.0684 83.9516 96.2554C83.9516 95.4425 83.2926 94.7834 82.4796 94.7834C81.6667 94.7834 81.0076 95.4425 81.0076 96.2554C81.0076 97.0684 81.6667 97.7275 82.4796 97.7275Z" fill="#FAF9FC"/>
<path d="M87.9997 82.1357C88.119 82.1647 88.2345 82.2076 88.3437 82.2638C88.4246 82.2963 88.5001 82.3408 88.5677 82.3958C88.9044 82.6534 89.1276 83.0319 89.19 83.4512C89.2525 83.8705 89.1494 84.2976 88.9025 84.6423C88.6556 84.9869 88.2844 85.2219 87.8672 85.2976C87.4501 85.3732 87.0199 85.2837 86.6677 85.0477L86.6077 84.9958C85.0055 83.6554 83.2943 82.4513 81.4917 81.3958C85.4197 81.5078 87.1997 81.8757 87.9997 82.1357Z" fill="#30311A"/>
<path d="M122.424 98.0477C122.748 101.524 120.092 104.616 116.488 104.948C112.884 105.28 109.976 103.436 109.652 99.9597C109.328 96.4837 111.52 92.9477 115.32 92.3597C118.264 91.9077 122.1 94.5717 122.424 98.0477Z" fill="white"/>
<path d="M115.028 104.468C117.884 104.468 120.2 102.152 120.2 99.2958C120.2 96.4394 117.884 94.1238 115.028 94.1238C112.171 94.1238 109.856 96.4394 109.856 99.2958C109.856 102.152 112.171 104.468 115.028 104.468Z" fill="#654E47"/>
<path d="M115.028 102.915C117.027 102.915 118.648 101.294 118.648 99.295C118.648 97.2958 117.027 95.675 115.028 95.675C113.028 95.675 111.408 97.2958 111.408 99.295C111.408 101.294 113.028 102.915 115.028 102.915Z" fill="#273526"/>
<path d="M117.752 101.912C118.291 101.912 118.728 101.475 118.728 100.936C118.728 100.397 118.291 99.9597 117.752 99.9597C117.213 99.9597 116.776 100.397 116.776 100.936C116.776 101.475 117.213 101.912 117.752 101.912Z" fill="#FAF9FC"/>
<path d="M112.96 97.7275C113.773 97.7275 114.432 97.0684 114.432 96.2554C114.432 95.4425 113.773 94.7834 112.96 94.7834C112.147 94.7834 111.488 95.4425 111.488 96.2554C111.488 97.0684 112.147 97.7275 112.96 97.7275Z" fill="#FAF9FC"/>
<path d="M111.752 82.1357C111.633 82.1647 111.517 82.2076 111.408 82.2638C111.327 82.2963 111.252 82.3408 111.184 82.3958C110.847 82.6534 110.624 83.0319 110.562 83.4512C110.499 83.8705 110.602 84.2976 110.849 84.6423C111.096 84.9869 111.467 85.2219 111.885 85.2976C112.302 85.3732 112.732 85.2837 113.084 85.0477L113.144 84.9958C114.746 83.6554 116.457 82.4513 118.26 81.3958C114.316 81.5078 112.532 81.8757 111.752 82.1357Z" fill="#30311A"/>
<path d="M112.552 120.719C108.714 119.574 104.72 119.034 100.716 119.119C96.7127 119.034 92.7207 119.574 88.8839 120.719C88.8839 120.719 85.9119 122.071 91.2519 127.327C93.7831 129.797 97.1794 131.179 100.716 131.179C104.252 131.179 107.649 129.797 110.18 127.327C115.52 122.071 112.552 120.719 112.552 120.719Z" fill="#333333"/>
<path d="M100.716 120.8C104.989 120.708 109.252 121.247 113.368 122.4C113.418 122.074 113.368 121.74 113.225 121.443C113.082 121.145 112.853 120.897 112.568 120.732C108.73 119.586 104.737 119.047 100.732 119.132C96.729 119.047 92.737 119.586 88.9002 120.732C88.6112 120.895 88.3782 121.141 88.2318 121.439C88.0855 121.736 88.0326 122.071 88.0802 122.4C92.1907 121.249 96.4484 120.71 100.716 120.8Z" fill="white"/>
<path d="M108.956 120.235C109.156 121.033 109.178 121.864 109.02 122.671C108.972 122.883 109.148 123.071 109.348 122.983C110.04 122.663 111.136 121.955 111.312 120.623C111.312 120.623 108.928 119.507 108.956 120.235Z" fill="white"/>
<path d="M110.18 127.328C110.748 126.775 111.282 126.189 111.78 125.572C107.78 124.516 104.02 123.776 100.712 123.852C97.4077 123.776 93.6557 124.516 89.6437 125.572C90.1412 126.189 90.6755 126.775 91.2437 127.328C93.775 129.797 97.1713 131.18 100.708 131.18C104.244 131.18 107.641 129.797 110.172 127.328H110.18Z" fill="#D8450B"/>
</g>
<path d="M165.896 143.338C165.896 130.67 155.626 120.4 142.958 120.4C130.29 120.4 120.02 130.67 120.02 143.338C120.02 156.006 130.29 166.276 142.958 166.276C155.626 166.276 165.896 156.006 165.896 143.338Z" fill="#13C1C1"/>
<path d="M157.068 133.572C156.59 133.096 155.943 132.829 155.268 132.829C154.593 132.829 153.946 133.096 153.468 133.572L139.344 147.7L132.468 140.82C131.984 140.376 131.347 140.137 130.691 140.151C130.035 140.165 129.409 140.433 128.945 140.897C128.48 141.361 128.213 141.987 128.199 142.643C128.185 143.299 128.424 143.936 128.868 144.42L137.548 153.1C137.784 153.337 138.065 153.524 138.374 153.652C138.683 153.78 139.014 153.846 139.348 153.846C139.682 153.846 140.013 153.78 140.322 153.652C140.631 153.524 140.912 153.337 141.148 153.1L157.076 137.172C157.55 136.692 157.815 136.045 157.813 135.37C157.812 134.696 157.544 134.05 157.068 133.572Z" fill="#015A80"/>
<path d="M113.732 29.7805C113.732 29.7805 111.308 24.8965 106.2 27.0245L107.088 30.8005C107.088 30.8005 111.068 29.3605 112.644 31.1045L113.732 29.7805Z" fill="#FFBE6E"/>
<path d="M123.636 15.364C123.636 15.364 123.4 10.468 128 11.02L128.32 12.62C128.32 12.62 126.892 14.22 125.552 16.072L123.636 15.364Z" fill="#FF8019"/>
<path d="M83.3999 32.0442L82.0959 36.5362L85.6959 37.8042V33.9282L83.3999 32.0442Z" fill="#15A0BE"/>
<path d="M156.324 45.9319L155.02 50.4279L158.62 51.6959V47.8159L156.324 45.9319Z" fill="#FFBE6E"/>
<path d="M103.292 180.288L102 184.8L105.6 186.068V182.192L103.292 180.288Z" fill="#FFBE6E"/>
<path d="M38.7478 152.676L37.4438 157.168L41.0438 158.44V154.56L38.7478 152.676Z" fill="#015A80"/>
<path d="M52.368 20.8193L54.304 23.9433H57.06V20.8193H52.368Z" fill="#FFBE6E"/>
<path d="M188.892 150.428L186.568 154L189.6 156.34L188.892 150.428Z" fill="#FF8019"/>
<path d="M23.0197 110.485L21.2397 113.725L23.0197 115.753L26.4237 114.737L23.0197 110.485Z" fill="#15A0BE"/>
<path d="M108 41.7957L106.22 45.0357L108 47.0637L111.4 46.0477L108 41.7957Z" fill="#015A80"/>
<path d="M185.344 106.308L183.564 109.548L185.344 111.572L187.488 107.22L185.344 106.308Z" fill="#FFBE6E"/>
<path d="M39.412 11.9161L40.612 11.0521C40.752 10.9601 40.912 11.1041 40.884 11.2921L40.58 12.9561C40.5742 12.9918 40.5758 13.0284 40.5847 13.0635C40.5937 13.0986 40.6098 13.1315 40.632 13.1601L41.512 14.2321C41.5332 14.2572 41.5493 14.2863 41.5592 14.3176C41.5691 14.349 41.5726 14.382 41.5697 14.4148C41.5667 14.4476 41.5572 14.4794 41.5418 14.5085C41.5264 14.5375 41.5054 14.5632 41.48 14.5841C41.4589 14.6021 41.4344 14.6157 41.408 14.6241L40.208 14.8481C40.1763 14.8544 40.1468 14.8687 40.1222 14.8898C40.0977 14.9108 40.079 14.9378 40.068 14.9681L39.492 16.6201C39.424 16.9281 39.26 16.8841 39.192 16.7121L38.648 14.9681C38.6372 14.9375 38.6187 14.9104 38.5941 14.8893C38.5695 14.8682 38.5398 14.854 38.508 14.8481L37.08 14.6801C36.928 14.6481 36.94 14.4921 37.048 14.3561L38.068 13.1561C38.0906 13.1277 38.1073 13.0949 38.1169 13.0599C38.1266 13.0248 38.1289 12.9881 38.124 12.9521L37.772 11.2481C37.744 11.0561 37.904 10.9121 38.04 11.0081L39.268 11.9121C39.2899 11.9243 39.3144 11.931 39.3395 11.9317C39.3645 11.9324 39.3894 11.9271 39.412 11.9161Z" fill="#015A80"/>
<path d="M57.9556 150.62L59.1556 149.752C59.2916 149.664 59.4516 149.808 59.4276 149.996L59.1236 151.656C59.118 151.692 59.1197 151.729 59.1286 151.765C59.1376 151.801 59.1535 151.834 59.1756 151.864L60.0556 152.932C60.0978 152.984 60.118 153.05 60.1121 153.116C60.1061 153.183 60.0744 153.244 60.0236 153.288C60.0014 153.304 59.9773 153.318 59.9516 153.328L58.7516 153.548C58.7197 153.555 58.69 153.57 58.6655 153.592C58.641 153.613 58.6225 153.641 58.6116 153.672L57.9996 155.324C57.9316 155.632 57.7676 155.588 57.6996 155.416L57.1556 153.672C57.1459 153.641 57.1281 153.613 57.1043 153.592C57.0804 153.57 57.0512 153.555 57.0196 153.548L55.5876 153.38C55.4356 153.352 55.4476 153.192 55.5556 153.06L56.5796 151.86C56.6017 151.83 56.6177 151.797 56.6267 151.761C56.6356 151.725 56.6373 151.688 56.6316 151.652L56.2796 149.956C56.2516 149.764 56.4116 149.62 56.5476 149.712L57.7796 150.62C57.8054 150.638 57.8361 150.648 57.8676 150.648C57.8992 150.648 57.9299 150.638 57.9556 150.62Z" fill="#FF8019"/>
<path d="M171.116 168.992L172.296 168.124C172.432 168.036 172.592 168.18 172.564 168.368L172.264 170.028C172.257 170.064 172.259 170.101 172.268 170.137C172.277 170.173 172.293 170.207 172.316 170.236L173.192 171.304C173.213 171.329 173.229 171.359 173.239 171.39C173.249 171.422 173.253 171.455 173.25 171.488C173.247 171.521 173.237 171.554 173.222 171.583C173.207 171.612 173.185 171.639 173.16 171.66C173.139 171.678 173.114 171.691 173.088 171.7L171.888 171.92C171.856 171.927 171.826 171.943 171.801 171.966C171.777 171.988 171.758 172.016 171.748 172.048L171.176 173.7C171.104 174.008 170.94 173.964 170.872 173.792L170.328 172.048C170.318 172.016 170.3 171.987 170.275 171.965C170.251 171.942 170.22 171.927 170.188 171.92L168.76 171.752C168.608 171.724 168.62 171.564 168.728 171.432L169.752 170.232C169.774 170.203 169.79 170.17 169.799 170.135C169.808 170.1 169.809 170.064 169.804 170.028L169.452 168.324C169.424 168.132 169.584 167.988 169.72 168.08L170.952 168.988C170.976 169.004 171.004 169.012 171.033 169.013C171.062 169.014 171.091 169.006 171.116 168.992Z" fill="#FFBE6E"/>
<path d="M106.28 168.909L107.46 168.041C107.596 167.953 107.756 168.097 107.728 168.285L107.428 169.945C107.422 169.981 107.424 170.018 107.433 170.054C107.441 170.09 107.457 170.123 107.48 170.153L108.356 171.221C108.377 171.246 108.394 171.275 108.404 171.307C108.414 171.338 108.418 171.371 108.415 171.404C108.413 171.437 108.404 171.47 108.389 171.499C108.374 171.529 108.353 171.555 108.328 171.577C108.305 171.593 108.281 171.606 108.256 171.617L107.056 171.837C107.023 171.844 106.993 171.86 106.967 171.883C106.942 171.905 106.923 171.933 106.912 171.965L106.328 173.601C106.26 173.909 106.092 173.869 106.024 173.693L105.484 171.949C105.472 171.918 105.454 171.89 105.429 171.867C105.405 171.845 105.376 171.829 105.344 171.821L103.912 171.653C103.76 171.625 103.772 171.465 103.884 171.333L104.904 170.133C104.926 170.104 104.941 170.071 104.95 170.036C104.959 170.001 104.961 169.964 104.956 169.929L104.604 168.225C104.576 168.037 104.736 167.893 104.872 167.981L106.104 168.889C106.127 168.909 106.157 168.922 106.188 168.926C106.22 168.93 106.252 168.923 106.28 168.909Z" fill="#015A80"/>
<path d="M166.924 41.4722L165.228 46.0202L167.652 47.3922L166.924 41.4722Z" fill="#15A0BE"/>
<path d="M169.532 121.22L171.42 125.656L173.752 120.772L169.532 121.22Z" fill="#15A0BE"/>
<path d="M59.7959 168.999L61.6839 173.435L63.9999 168.551L59.7959 168.999Z" fill="#15A0BE"/>
<path d="M159.2 177.351L157.504 181.899L159.928 183.271L159.2 177.351Z" fill="#15A0BE"/>
<path d="M29.6559 39.2445C26.6279 37.8365 24.8959 45.5525 28.6079 45.4805C30.8919 45.4325 30.6559 42.1405 29.3159 41.0565C27.2279 39.3765 24.6639 42.3205 25.1679 44.4285C25.2559 44.8285 25.7359 44.7285 25.8599 44.4285C26.1959 43.6285 27.7879 40.5325 28.7999 42.4485C28.9719 42.7765 29.1999 43.5885 28.8919 43.9285C28.5839 44.2685 28.2719 44.0925 28.0679 43.8085C27.3999 42.9005 28.1959 39.8085 29.5239 39.7285C29.7599 39.7285 29.9239 39.3565 29.6559 39.2445Z" fill="#15A0BE"/>
<path d="M19.7436 138.032C19.9694 137.85 20.2291 137.713 20.5077 137.631C20.7864 137.548 21.0785 137.521 21.3675 137.552C21.6565 137.582 21.9367 137.669 22.192 137.808C22.4473 137.947 22.6728 138.135 22.8556 138.36C22.9733 138.506 23.0714 138.666 23.1476 138.836C23.4826 139.299 23.6415 139.867 23.5956 140.436C23.2996 141.344 22.6956 140.837 22.4916 140.293C22.1365 139.268 22.1266 138.155 22.4636 137.125C22.5704 136.766 22.7568 136.435 23.0089 136.158C23.261 135.881 23.5722 135.665 23.9196 135.525C24.5596 135.337 25.0756 135.685 25.6836 135.813C26.0036 135.881 26.4076 135.593 26.2676 135.225C25.2036 132.501 21.8676 134.597 21.1076 136.405C20.4476 138.005 20.3076 141.713 22.4396 142.341C22.9071 142.454 23.3997 142.395 23.8273 142.175C24.2549 141.954 24.5887 141.587 24.7676 141.141C24.8973 140.62 24.9038 140.076 24.7864 139.553C24.6691 139.029 24.4311 138.54 24.0916 138.125C23.1996 136.829 19.7356 135.324 19.1516 137.684C19.1298 137.776 19.1449 137.872 19.1936 137.952C19.2423 138.032 19.3206 138.09 19.4116 138.113C19.4683 138.126 19.5276 138.126 19.5842 138.111C19.6408 138.097 19.6928 138.068 19.7356 138.029L19.7436 138.032Z" fill="#FF8019"/>
<path d="M11.4638 82.3996C11.8638 82.0556 12.1558 81.6436 12.7238 81.8196C13.1902 82.0522 13.57 82.4278 13.8078 82.8916C14.0718 83.2916 15.0358 85.0996 14.3518 85.4796C13.8838 85.7396 13.4278 85.0476 13.3158 84.7196C13.1515 84.1066 13.1598 83.4602 13.3398 82.8516C13.4602 82.2157 13.7611 81.6279 14.2065 81.1583C14.652 80.6888 15.2231 80.3573 15.8518 80.2036C15.9748 80.1674 16.0784 80.0839 16.1399 79.9714C16.2014 79.8589 16.2157 79.7266 16.1798 79.6036C16.1473 79.4878 16.0732 79.3881 15.9718 79.3236C13.7078 78.0476 12.0478 81.5316 11.8558 83.2276C11.6638 84.9236 12.7238 87.7236 14.9238 86.6236C16.5918 85.7876 15.4798 83.2196 14.7038 82.1556C13.7878 80.8956 11.4318 79.8516 10.9158 82.0876C10.8983 82.1575 10.9041 82.2311 10.9321 82.2975C10.9602 82.3638 11.0091 82.4192 11.0714 82.4553C11.1337 82.4914 11.206 82.5063 11.2776 82.4977C11.3491 82.4891 11.4158 82.4575 11.4678 82.4076L11.4638 82.3996Z" fill="#FF8019"/>
<path d="M66.7995 178.744C67.7915 176.852 70.1635 179.336 70.1235 180.5C70.1235 180.628 69.7715 182.5 69.1555 181.596C68.8115 181.084 69.7155 180.088 70.0755 179.884C73.0115 178.244 73.4475 184.72 70.9955 184.492L71.6515 185.148C71.6155 183.912 72.9875 184.248 73.5275 184.54C75.0515 185.372 74.6555 187 74.0395 188.236C73.9821 188.357 73.9724 188.496 74.0123 188.624C74.0523 188.752 74.1389 188.861 74.2552 188.928C74.3714 188.996 74.5087 189.017 74.6399 188.988C74.7711 188.959 74.8866 188.882 74.9635 188.772C76.1635 186.884 76.2235 184.168 73.7635 183.22C72.1355 182.592 70.2875 183.22 70.3355 185.148C70.3415 185.32 70.4125 185.483 70.5343 185.605C70.656 185.727 70.8194 185.798 70.9915 185.804C74.0435 186.1 74.5915 181.204 73.0555 179.376C71.2475 177.228 67.6675 178.976 67.9355 181.672C68.0275 182.62 68.6235 183.436 69.6595 183.116C70.2108 182.837 70.6545 182.384 70.9215 181.827C71.1885 181.27 71.2637 180.64 71.1355 180.036C70.8435 178.164 66.7915 175.788 66.3835 178.568C66.3515 178.792 66.6635 178.968 66.7835 178.736L66.7995 178.744Z" fill="#015A80"/>
<path d="M65.892 20.2605C65.9971 19.8324 66.2558 19.4577 66.6188 19.2076C66.9818 18.9575 67.424 18.8493 67.8615 18.9036C68.299 18.9578 68.7014 19.1708 68.9924 19.502C69.2833 19.8332 69.4426 20.2596 69.44 20.7005C69.4806 21.1044 69.3954 21.5109 69.196 21.8645C68.748 22.3125 68.644 21.3285 68.6 20.9205C68.492 19.8605 70.064 17.0045 71.472 18.2285C71.916 18.6285 72.052 19.8285 72.132 20.3405C72.1993 21.0599 72.2087 21.7836 72.16 22.5045C71.788 22.3765 72.136 21.1045 72.208 20.8725C72.664 19.3285 73.984 17.5245 75.6 18.9485C75.964 19.2685 76.588 18.8565 76.304 18.4045C74.272 15.2285 71.244 18.6645 70.824 21.1605C70.66 22.1165 70.768 23.6245 71.944 23.9045C73.228 24.2125 73.504 22.7045 73.544 21.7565C73.584 20.3885 73.36 18.2805 72.344 17.2365C71.216 16.0805 69.48 16.8085 68.544 17.8445C67.396 19.1125 66.728 21.5485 68.024 22.9725C68.872 23.9085 69.884 23.3725 70.336 22.3605C70.7124 21.6069 70.7765 20.7354 70.5144 19.9349C70.2523 19.1344 69.6851 18.4695 68.936 18.0845C68.672 17.9648 68.387 17.8988 68.0973 17.8903C67.8077 17.8817 67.5192 17.9307 67.2487 18.0346C66.9781 18.1384 66.7309 18.2949 66.5214 18.4951C66.3118 18.6952 66.1441 18.935 66.028 19.2005C65.8753 19.5346 65.8119 19.9026 65.844 20.2685C65.844 20.2722 65.8447 20.2758 65.8461 20.2792C65.8475 20.2826 65.8496 20.2857 65.8522 20.2883C65.8548 20.2909 65.8579 20.293 65.8613 20.2944C65.8647 20.2958 65.8683 20.2965 65.872 20.2965C65.8787 20.297 65.8855 20.2953 65.8912 20.2917C65.897 20.2881 65.9014 20.2828 65.904 20.2765L65.892 20.2605Z" fill="#FF8019"/>
<path d="M155.928 91.4241V91.1441C156.436 90.5521 155.332 90.0521 155.188 90.7121C154.736 92.7961 157.072 95.4561 159.264 94.7121C161.768 93.8641 160.812 90.3121 159.748 88.7121C159.384 88.1601 158.748 87.3801 157.984 87.6121C157.084 87.8801 157 89.2801 157.124 90.0121C157.492 92.2161 160.724 94.3001 162.828 93.2121C164.932 92.1241 165 87.3121 162.924 86.1721C162.822 86.1153 162.702 86.1008 162.59 86.1314C162.478 86.1621 162.382 86.2356 162.324 86.3361C162.288 86.3995 162.268 86.4711 162.268 86.5441C162.308 88.1441 163.58 89.7441 162.7 91.3761C161.672 93.2921 158.392 91.1081 158.264 89.5201C158.264 89.3801 158.232 88.9321 158.344 88.8041C158.372 88.7761 158.068 88.6721 158.344 88.8041C158.62 88.9361 158.788 89.3921 158.908 89.6041C159.313 90.3417 159.543 91.163 159.58 92.0041C159.6 93.1841 158.78 93.8841 157.656 93.3241C157.198 93.0735 156.811 92.7109 156.531 92.2702C156.251 91.8295 156.088 91.3251 156.056 90.8041L155.616 91.2441L155.876 91.4201C155.879 91.4242 155.882 91.4276 155.887 91.4299C155.892 91.4322 155.897 91.4334 155.902 91.4334C155.907 91.4334 155.912 91.4322 155.916 91.4299C155.921 91.4276 155.925 91.4242 155.928 91.4201C155.93 91.4164 155.931 91.4123 155.931 91.4081C155.931 91.4039 155.93 91.3997 155.928 91.3961V91.4241Z" fill="#15A0BE"/>
<path d="M171.807 58.5317C171.861 58.2278 172.033 57.9576 172.286 57.7806C172.539 57.6036 172.852 57.5342 173.156 57.5877C173.234 57.601 173.31 57.6225 173.383 57.6517C174.151 57.9437 174.268 58.9477 174.228 59.6517C174.143 59.9533 174.073 60.259 174.019 60.5677C174.483 60.5677 174.58 60.3797 174.3 60.0277L174.195 59.6557C173.967 58.9134 173.94 58.1241 174.116 57.3677C174.17 57.0103 174.364 56.689 174.655 56.4745C174.946 56.26 175.31 56.1698 175.668 56.2237C175.741 56.2353 175.813 56.2527 175.883 56.2757C176.967 56.6757 177.032 58.0357 176.916 58.9997L177.392 58.3717C176.376 58.6917 176.564 56.9197 176.652 56.3397C176.759 55.3268 177.179 54.3723 177.852 53.6077C178.132 53.3557 177.852 52.9357 177.504 53.0077C174.676 53.6557 174.303 60.6917 177.719 59.6237C177.854 59.5827 177.973 59.5004 178.058 59.3884C178.143 59.2764 178.192 59.1405 178.195 58.9997C178.391 57.3997 177.859 55.5037 176.143 54.9997C175.804 54.9092 175.45 54.8866 175.102 54.9331C174.754 54.9797 174.419 55.0945 174.115 55.2711C173.811 55.4476 173.546 55.6823 173.333 55.9618C173.12 56.2413 172.965 56.56 172.876 56.8997C172.548 57.9517 172.604 62.2317 174.512 61.6997C176.147 61.2397 175.492 57.9357 174.68 57.0637C174.315 56.7102 173.851 56.4776 173.35 56.3974C172.849 56.3173 172.336 56.3935 171.88 56.6157C171.12 56.9797 170.552 57.9397 171.188 58.6637C171.256 58.7311 171.348 58.7689 171.443 58.7689C171.539 58.7689 171.631 58.7311 171.7 58.6637C171.739 58.6246 171.767 58.5766 171.783 58.5237L171.807 58.5317Z" fill="#FF8019"/>
</svg>
